<?xml version="1.0" encoding="UTF-8" standalone="no"?>
<!-- Created with Inkscape (http://www.inkscape.org/) -->

<svg
   width="210mm"
   height="297mm"
   viewBox="0 0 210 297"
   version="1.1"
   id="svg5"
   inkscape:version="1.2.1 (9c6d41e410, 2022-07-14)"
   sodipodi:docname="lrotnx.svg"
   xmlns:inkscape="http://www.inkscape.org/namespaces/inkscape"
   xmlns:sodipodi="http://sodipodi.sourceforge.net/DTD/sodipodi-0.dtd"
   xmlns="http://www.w3.org/2000/svg"
   xmlns:svg="http://www.w3.org/2000/svg">
  <sodipodi:namedview
     id="namedview7"
     pagecolor="#ffffff"
     bordercolor="#000000"
     borderopacity="0.25"
     inkscape:showpageshadow="2"
     inkscape:pageopacity="0.0"
     inkscape:pagecheckerboard="0"
     inkscape:deskcolor="#d1d1d1"
     inkscape:document-units="mm"
     showgrid="false"
     inkscape:zoom="0.50333193"
     inkscape:cx="373.51097"
     inkscape:cy="504.63717"
     inkscape:window-width="1366"
     inkscape:window-height="745"
     inkscape:window-x="-8"
     inkscape:window-y="-8"
     inkscape:window-maximized="1"
     inkscape:current-layer="layer3" />
  <defs
     id="defs2" />
  <g
     inkscape:groupmode="layer"
     id="layer3"
     inkscape:label="Слой 3">
    <rect
       style="fill:#00ffff;stroke-width:0.264583"
       id="rect1541"
       width="209.73982"
       height="161.90442"
       x="0.52566373"
       y="1.0513275" />
    <ellipse
       style="fill:#ffff00;stroke-width:0.264583"
       id="path1647"
       cx="160.06459"
       cy="39.687607"
       rx="22.340708"
       ry="21.289379" />
    <path
       style="fill:#164450;stroke-width:0.264583"
       d="M 11.564602,37.322125 C 23.129203,19.449557 33.642477,8.4106193 58.348673,14.718584 c 24.706193,6.307964 42.578757,3.679646 48.361057,9.98761 5.7823,6.307965 28.91151,16.821239 21.55221,22.603541 -7.35929,5.782299 14.19293,18.923892 -13.14159,16.295574 C 87.785838,60.976991 26.80885,54.143362 22.077876,58.348673 17.346903,62.553982 11.564602,53.092034 9.4619468,49.938053 7.3592919,46.784069 11.564602,37.322125 11.564602,37.322125 Z"
       id="path1703" />
  </g>
  <g
     inkscape:groupmode="layer"
     id="layer2"
     inkscape:label="Слой 2">
    <path
       style="fill:#008000;stroke-width:0.264583"
       d="M 41.00177,117.22301 C 13.667256,85.683184 28.911505,83.58053 18.923894,66.233627 c -9.9876108,-17.346901 -6.307965,-21.026549 0,-32.59115 C 25.231858,22.077876 28.911505,11.038938 42.053097,13.141593 55.194689,15.244248 55.194689,1.5769911 65.182299,8.4106193 75.16991,15.244248 92.516813,4.7309735 95.670795,27.860178 c 3.153981,23.129202 4.730975,42.57876 4.730975,57.823006 0,15.244246 -3.153984,38.373456 -13.667259,38.899116 -10.513274,0.52566 -28.385838,8.41062 -33.642477,8.41062 -5.256635,0 -12.090264,-15.76991 -12.090264,-15.76991 z"
       id="path274" />
    <path
       style="fill:#552200;stroke-width:0.264583"
       d="m 65.707963,89.362832 c 4.730975,-37.322125 -4.205309,-57.297346 1.576991,-52.040707 5.782302,5.256635 6.833629,14.192919 7.884956,25.75752 1.051327,11.564601 -11.038938,44.681415 -11.038938,44.681415 z"
       id="path330" />
    <path
       style="fill:#552200;stroke-width:0.264583"
       d="m 50.98938,71.490265 c -0.525663,-25.757523 -3.153981,-42.57876 -5.256638,-42.57876 -2.102655,0 -6.833627,12.090265 -6.833627,19.449557 0,7.35929 1.576991,31.014159 3.679645,34.693804 2.102655,3.679645 5.782302,12.615929 5.782302,12.615929 z"
       id="path332" />
    <rect
       style="fill:#37c837;stroke-width:0.264583"
       id="rect1308"
       width="206.06018"
       height="135.09557"
       x="3.1539822"
       y="161.90442" />
    <rect
       style="fill:#917c6f;stroke-width:0.328255"
       id="rect1362"
       width="32.591152"
       height="82.529205"
       x="53.617699"
       y="201.32921" />
    <rect
       style="fill:#917c6f;stroke-width:0.239163"
       id="rect1420"
       width="35.219471"
       height="15.769911"
       x="52.566368"
       y="185.55928" />
    <rect
       style="fill:#000000;stroke-width:0.264583"
       id="rect1422"
       width="52.040707"
       height="3.1539822"
       x="2.6283185"
       y="232.86902" />
    <rect
       style="fill:#000000;stroke-width:0.264583"
       id="rect1424"
       width="52.040707"
       height="2.1026549"
       x="2.6283185"
       y="270.7168" />
    <rect
       style="fill:#000000;stroke-width:0.264583"
       id="rect1426"
       width="3.679646"
       height="55.720356"
       x="40.476105"
       y="220.77875" />
    <rect
       style="fill:#000000;stroke-width:0.264583"
       id="rect1428"
       width="4.7309732"
       height="76.221237"
       x="29.437168"
       y="201.32919" />
    <rect
       style="fill:#000000;stroke-width:0.264583"
       id="rect1430"
       width="4.2053099"
       height="65.182304"
       x="14.718584"
       y="211.84248" />
    <rect
       style="fill:#1a1a1a;stroke-width:0.264583"
       id="rect1434"
       width="27.334513"
       height="119.85133"
       x="117.22301"
       y="161.90442" />
  </g>
  <g
     inkscape:label="Слой 1"
     inkscape:groupmode="layer"
     id="layer1">
    <rect
       style="fill:#552200;stroke-width:0.249656"
       id="rect163"
       width="15.769911"
       height="106.70974"
       x="48.361061"
       y="72.01593" />
    <circle
       style="fill:#800080;stroke-width:0.264583"
       id="path386"
       cx="98.817863"
       cy="70.133163"
       r="10.593461" />
    <rect
       style="fill:#ffffff;stroke-width:0.101904"
       id="rect440"
       width="9.558547"
       height="2.1999173"
       x="99.503632"
       y="69.60202" />
    <path
       style="fill:#ffffff;stroke-width:0.264583"
       d="m 99.350442,69.913274 -8.804867,-5.782302 -1.839823,3.416816 10.776106,5.913715 z"
       id="path712" />
    <rect
       style="fill:#ff6600;stroke-width:0.19594"
       id="rect714"
       width="43.488941"
       height="5.5755062"
       x="66.534363"
       y="152.76884" />
    <rect
       style="fill:#c87137;stroke-width:0.264583"
       id="rect768"
       width="35.683235"
       height="20.071821"
       x="69.879669"
       y="158.71605" />
    <rect
       style="fill:#ffffff;stroke-width:0.264583"
       id="rect978"
       width="26.019028"
       height="12.266112"
       x="74.711777"
       y="162.43306" />
    <rect
       style="fill:#000000;stroke-width:0.254431"
       id="rect980"
       width="22.603539"
       height="42.053101"
       x="158.75044"
       y="159.27609" />
    <rect
       style="fill:#000000;stroke-width:0.206161"
       id="rect1034"
       width="8.9362831"
       height="103.55575"
       x="165.58408"
       y="57.297344" />
    <path
       style="fill:#008080;stroke-width:0.264583"
       d="m 166.10973,59.4 c -8.41062,-2.102657 -13.14159,-21.552212 -13.66725,-25.757523 -0.52567,-4.205309 2.10265,-19.975221 7.88495,-16.821238 5.7823,3.153982 8.93628,3.679646 14.19292,1.576991 5.25664,-2.102655 14.19292,-8.9362832 17.3469,-0.525664 3.15399,8.410619 12.09027,18.398229 5.25664,32.065487 -6.83363,13.667256 -11.5646,20.500885 -15.76991,19.449558 C 177.14867,68.336283 166.10973,59.4 166.10973,59.4 Z"
       id="path1090" />
    <rect
       style="fill:#000000;stroke-width:0.264583"
       id="rect1198"
       width="3.679646"
       height="43.630089"
       x="170.8407"
       y="21.026548" />
    <rect
       style="fill:#000000;stroke-width:0.264583"
       id="rect1200"
       width="43.104427"
       height="3.679646"
       x="156.64778"
       y="39.950443" />
    <ellipse
       style="fill:#ff0000;stroke-width:0.264583"
       id="path1306"
       cx="173.99469"
       cy="138.77522"
       rx="5.7823009"
       ry="7.359292" />
  </g>
</svg>
